<?xml version="1.0" standalone="no"?>
<!DOCTYPE svg PUBLIC "-//W3C//DTD SVG 20010904//EN"
 "http://www.w3.org/TR/2001/REC-SVG-20010904/DTD/svg10.dtd">
<svg version="1.0" xmlns="http://www.w3.org/2000/svg"
 width="1416.000000pt" height="664.000000pt" viewBox="0 0 1416.000000 664.000000"
 preserveAspectRatio="xMidYMid meet">

<g transform="translate(0.000000,664.000000) scale(0.100000,-0.100000)"
fill="#000000" stroke="none">
<path d="M2133 5281 c-130 -33 -184 -167 -108 -267 39 -52 92 -74 173 -74 58
0 75 4 114 29 58 37 81 79 80 148 0 42 -6 61 -27 89 -48 62 -151 96 -232 75z"/>
<path d="M3755 4710 c-244 -46 -424 -129 -558 -259 -105 -101 -159 -214 -171
-357 -22 -256 99 -450 389 -621 58 -34 319 -163 330 -163 2 0 42 -18 89 -40
47 -22 88 -40 91 -40 3 0 58 -25 123 -57 205 -99 330 -196 382 -300 20 -38 26
-67 28 -138 3 -80 1 -97 -22 -148 -57 -129 -173 -203 -384 -246 -69 -14 -356
-14 -441 0 -210 34 -399 97 -531 176 -30 18 -58 33 -62 33 -5 0 -8 -76 -8
-168 0 -183 0 -181 60 -209 74 -34 237 -75 375 -93 50 -6 117 -16 151 -21 33
-5 77 -9 97 -9 l36 0 3 -137 3 -138 105 -6 c129 -8 175 -22 217 -64 28 -28 33
-40 33 -79 0 -39 -5 -51 -37 -84 -54 -56 -114 -72 -275 -72 l-129 0 3 -77 3
-78 166 2 c228 2 346 32 451 115 74 58 106 178 76 279 -32 103 -168 182 -333
192 l-40 2 -3 73 c-3 70 -2 72 23 82 15 6 41 10 59 10 39 0 201 34 271 56 105
34 239 108 310 171 48 43 117 134 141 187 70 153 71 356 2 502 -31 68 -138
190 -225 258 -90 70 -179 122 -343 201 -108 51 -149 70 -330 150 -276 123
-401 212 -463 330 -31 58 -31 222 0 280 32 61 124 142 199 176 132 60 208 73
424 73 190 0 232 -4 390 -41 74 -17 202 -67 241 -94 14 -10 29 -16 33 -12 3 3
6 80 6 170 l0 164 -32 14 c-52 21 -154 45 -257 61 -143 21 -536 18 -666 -6z"/>
<path d="M7068 4693 l-86 -4 -560 -567 c-308 -312 -572 -582 -587 -599 -57
-69 -55 -87 -57 565 l-3 597 -173 3 -172 2 2 -1297 3 -1298 150 -3 c83 -1 160
0 173 3 l22 5 0 625 c0 525 2 625 14 625 7 0 30 -19 51 -42 20 -24 118 -126
218 -228 184 -187 778 -798 898 -922 l65 -68 226 0 c125 0 234 3 243 7 14 5
-14 36 -126 146 -79 76 -344 336 -589 577 -245 240 -487 477 -537 525 -51 49
-93 94 -93 100 0 7 48 58 108 115 59 57 242 235 407 395 449 435 551 533 653
630 50 48 92 94 92 101 0 14 -99 16 -342 7z"/>
<path d="M2022 3393 l3 -1298 170 0 170 0 0 1295 0 1295 -173 3 -172 2 2
-1297z"/>
<path d="M7870 3844 c0 -544 4 -870 11 -913 34 -218 61 -311 121 -426 155
-294 496 -456 963 -455 568 1 930 214 1068 630 63 192 62 170 62 1130 l0 875
-172 3 -172 2 -4 -892 c-3 -773 -6 -901 -20 -953 -25 -95 -33 -120 -61 -175
-91 -182 -223 -278 -446 -326 -80 -17 -370 -19 -437 -2 -244 58 -387 162 -471
340 -87 184 -92 250 -92 1221 l0 787 -175 0 -175 0 0 -846z"/>
<path d="M10855 4678 c-3 -7 -4 -591 -3 -1298 l3 -1285 170 0 170 0 5 550 5
550 200 -1 c162 0 211 -3 260 -18 170 -51 270 -144 480 -451 49 -71 122 -177
162 -235 39 -58 112 -163 160 -235 48 -71 96 -138 106 -147 15 -16 39 -18 206
-18 179 0 234 5 214 19 -5 3 -94 124 -199 269 -358 498 -441 612 -495 679 -66
82 -171 172 -239 204 -27 13 -50 28 -50 34 0 5 39 22 88 38 141 45 262 111
342 188 49 47 120 132 120 143 0 3 10 23 23 44 74 118 92 347 40 500 -67 200
-218 343 -440 417 -173 58 -165 58 -766 62 -455 4 -558 2 -562 -9z m1043 -283
c146 -30 274 -108 327 -199 135 -232 38 -526 -215 -648 -130 -63 -197 -73
-505 -73 -148 0 -278 3 -288 7 -16 7 -17 36 -15 465 l3 458 115 6 c185 10 496
2 578 -16z"/>
</g>
</svg>
